<?xml version="1.0" encoding="utf-8"?>
<!-- Generator: Adobe Illustrator 18.1.1, SVG Export Plug-In . SVG Version: 6.00 Build 0)  -->
<svg version="1.1" id="Layer_1" xmlns="http://www.w3.org/2000/svg" xmlns:xlink="http://www.w3.org/1999/xlink" x="0px" y="0px"
	 viewBox="0 0 750 750" enable-background="new 0 0 750 750" xml:space="preserve">
<g id="zkGxX0_1_" display="none">
	
		<image display="inline" overflow="visible" width="450" height="470" id="zkGxX0_2_" xlink:href="D987A9AA0FA76EB2.jpg"  transform="matrix(1.5628 0 0 1.5628 20.2631 4.497)">
	</image>
</g>
<path fill="#616161" d="M543.6,157.8l-163.6-28v0l-163.7,28c-3.1,96.9,5.7,170.2,24.8,223.5c20.6,55.3,71.6,94.9,138.9,125.7v0
	c67.2-30.8,118.3-70.4,138.9-125.7C537.9,328,546.7,254.6,543.6,157.8z"/>
<path fill="#464647" d="M380,129.7L380,129.7l-163.7,28c-3.1,96.9,5.7,170.2,24.8,223.5c20.6,55.3,71.6,94.9,138.9,125.7v0
	C380,507,380,129.7,380,129.7z"/>
<path fill="#FFFFFF" d="M524,175.2l-143.8-24.8v0l-143.7,24.7c-1.5,106.8,9.5,176,33.8,220c6.4,11.5,14.8,21,14.8,21
	c31.7,39.6,70.5,59.1,94.9,68.7c0,0.1,0,0.2,0,0.2c0.1,0,0.2-0.1,0.2-0.1c0.1,0,0.2,0.1,0.3,0.1l0-0.3
	c49.6-23.4,87.7-52.6,109.7-89.8C514.5,351.2,525.4,282,524,175.2z"/>
<path fill="#BA2032" d="M508.5,189.3l-127.3-21.2V168l-0.2,0l0,0v0l-127.3,21.2c-2.7,60.8,2.9,119.2,21.2,175.5
	c15.9,40.7,50.5,76.9,106.1,102v0c55.7-25.1,90.3-61.3,106.2-102C505.6,308.5,511.2,250,508.5,189.3z"/>
<path opacity="0.1" fill="#FFFFFF" d="M444.3,178.4l-62.1-10.4V168l-0.2,0l0,0v0l-62.3,10.4c-27,12.2-49.7,32.2-65.4,57
	c0.4,13.9,1.4,27.6,2.9,41.3c1.2-3.7,2.5-7.4,4-11h35.4c-2.7,12.7-4.4,26.2-5,40.3h-30.3c1.2,6.7,2.5,13.5,4,20.1h26.3
	c0.5,14,2.3,27.5,5,40.3h-20c2.8,6.9,6,13.6,9.9,20.1h15.4c5.1,16,11.9,30.4,19.9,42.3c16.3,14.4,36.4,27.2,60.3,38v0
	c23.7-10.7,43.6-23.4,59.9-37.6c8.2-12.1,15.1-26.5,20.2-42.8h15.6c3.8-6.6,7.1-13.3,9.9-20.1h-20.2c2.7-12.7,4.4-26.2,5-40.3h26.4
	c1.5-6.7,2.8-13.4,4-20.1h-30.5c-0.5-14-2.3-27.5-5-40.3h35.4c1.6,3.7,2.9,7.6,4.1,11.4c1.5-13.7,2.5-27.5,2.9-41.4
	C494.2,210.7,471.4,190.7,444.3,178.4z M271.7,245.5c13.1-20.5,31.8-37,53.8-47.6c-9.7,12.9-17.8,29.1-23.7,47.6H271.7z
	 M371.9,445.6c-20.7-5.5-38.5-27.8-49.3-59.1h49.3V445.6z M371.9,366.3h-55c-2.8-12.5-4.6-26.1-5.2-40.3h60.2V366.3z M371.9,305.9
	h-60.2c0.6-14.2,2.4-27.7,5.2-40.3h55V305.9z M371.9,245.5h-49.3c10.8-31.3,28.6-53.6,49.3-59.1V245.5z M392.1,186.4
	c20.7,5.5,38.5,27.7,49.3,59.1h-49.3V186.4z M392.1,445.6v-59.1h49.3C430.6,417.8,412.7,440,392.1,445.6z M447,366.3h-55v-40.3h60.2
	C451.7,340.2,449.9,353.8,447,366.3z M392.1,305.9v-40.3h55c2.9,12.5,4.6,26.1,5.2,40.3H392.1z M462.2,245.5
	c-5.9-18.5-14-34.7-23.7-47.6c22,10.6,40.7,27.1,53.8,47.6H462.2z"/>
<g>
	<path fill="#FFFFFF" d="M413.5,434.9h-64.7V281.7c0-8.8-2-15-5.9-18.7c-3.9-3.7-11.4-5.5-22.5-5.5H311V229
		c14.4-2.9,26.9-7.7,37.5-14.6c9.1-5.9,18-14.1,26.9-24.6h38.2V434.9z"/>
</g>
<path opacity="0.1" d="M381.2,168.1L381.2,168.1l-0.2,0l0,0v0l-127.3,21.2c-2.7,60.8,2.9,119.2,21.2,175.5
	c15.9,40.7,50.5,76.9,106.1,102v0C381,467,381.2,168.1,381.2,168.1z"/>
<polygon fill="#464647" points="565.3,360.5 508,360.5 508,426 548,426 "/>
<polygon fill="#464647" points="194.7,360.5 252,360.5 252,426 212,426 "/>
<polygon fill="#616262" points="380.9,330 229.9,352.9 229.9,411.6 380.9,423.5 532,411.6 532,352.9 "/>
<polygon fill="#545352" points="381.1,329.9 230.1,352.8 230.1,411.5 381.1,423.4 "/>
<path fill="none" d="M381.2,168.1L381.2,168.1l-0.2,0l0,0v0l-127.3,21.2c-2.7,60.8,2.9,119.2,21.2,175.5
	c15.9,40.7,50.5,76.9,106.1,102v0C381,467,381.2,168.1,381.2,168.1z"/>
<g>
	<path fill="#FFFFFF" d="M441,285.4c1.6,3.8,1.9,6.7,1.9,6.7h0.7c0,0,0.2-2.9,1.7-6.7L452,266h10.8l0.5,3.7
		c-0.5,0.7-1.6,1.4-2.8,1.8v22.1c1.1,0.4,2.1,1,2.7,1.7l-0.5,4h-11l-0.5-4c0.6-0.7,1.5-1.3,2.7-1.7v-12.6c0-2.9,0.4-7.1,0.4-7.1
		l-0.5,0c0,0-1.1,4.1-1.9,6.5l-6.4,18.9h-6.4l-6.8-18.9c-1-2.4-1.9-6.5-1.9-6.5l-0.5,0c0,0,0.4,4.3,0.4,7.1v12.7
		c1.1,0.4,2.1,1.1,2.7,1.8l-0.5,3.7H423l-0.5-3.7c0.6-0.7,1.5-1.4,2.7-1.8v-22.3c-1.2-0.4-2.2-1.1-2.8-1.8l0.5-3.7h11L441,285.4z"/>
</g>
<g>
	<path fill="#FFFFFF" d="M478.6,266c8.9,0,14.4,1,14.4,8.9c0,2.4-1.5,4.5-3.5,6.2c2.6,1.3,4.5,3.8,4.5,8.5c0,6.6-4.4,9.5-12.6,9.8
		h-13.8l-0.5-4c0.5-0.6,1.5-1.2,2.7-1.6v-22.1c-1.2-0.4-2.2-1-2.7-1.6l0.5-4H478.6z M476.8,271.2v8.4h4c3.5,0,5.1-2.1,5.1-4.3
		c0-3.7-2.7-4-6.5-4H476.8z M476.8,284.9v9.2h3.3c3.8,0,6.7-0.7,6.7-4.7c0-3-1.6-4.5-5.7-4.5H476.8z"/>
</g>
<g>
	<path fill="#FFFFFF" d="M329.2,346l2.1,5.1l5.5,0.5c0.4,0,0.5,0.5,0.2,0.8l-4.2,3.6l1.2,5.4c0.1,0.4-0.3,0.7-0.6,0.5l-4.7-2.8
		l-4.7,2.8c-0.3,0.2-0.7-0.1-0.6-0.5l1.2-5.4l-4.2-3.6c-0.3-0.2-0.1-0.7,0.2-0.8l5.5-0.5l2.1-5.1C328.6,345.7,329.1,345.7,329.2,346
		L329.2,346z"/>
</g>
<g>
	<path fill="#FFFFFF" d="M354.4,344.1l2.5,6l6.4,0.6c0.4,0,0.6,0.6,0.3,0.9l-4.9,4.2l1.5,6.3c0.1,0.4-0.4,0.8-0.8,0.5l-5.5-3.3
		l-5.5,3.3c-0.4,0.2-0.9-0.1-0.8-0.5l1.5-6.3l-4.9-4.2c-0.3-0.3-0.2-0.9,0.3-0.9l6.4-0.6l2.5-6C353.7,343.7,354.3,343.7,354.4,344.1
		L354.4,344.1z"/>
</g>
<g>
	<path fill="#FFFFFF" d="M381.2,340.4l3.1,7.3l7.9,0.7c0.5,0,0.8,0.7,0.4,1.1l-6,5.2l1.8,7.7c0.1,0.5-0.5,1-0.9,0.7l-6.8-4.1
		l-6.8,4.1c-0.5,0.3-1.1-0.1-0.9-0.7l1.8-7.7l-6-5.2c-0.4-0.4-0.2-1,0.4-1.1l7.9-0.7l3.1-7.3C380.3,339.9,381,339.9,381.2,340.4
		L381.2,340.4z"/>
</g>
<g>
	<path fill="#FFFFFF" d="M277.3,379.4c-0.6-0.8-0.9-2.9-1-3.7c-0.9-0.2-2.3-0.4-3.6-0.4c-2.3,0-4,1.2-4,3.2c0,2,0.7,3.1,4.2,4
		l4.4,1.2c4,1.1,7.8,3.3,7.8,9.1c0,6.6-5.7,10.2-12.6,10.2c-3.7,0-8.4-0.9-11.3-2.7c-0.1-2,0.5-5.3,1.3-6.9h4.7
		c0.4,0.8,0.8,2.4,0.9,3.9c1.3,0.5,2.9,0.7,4.1,0.7c2.8,0,5.2-1.3,5.2-4c0-1.4-0.2-2.9-3.3-3.8l-5.1-1.4c-4.3-1.2-7.8-3.8-7.8-9.3
		c0-5.7,4.9-9.3,11.7-9.3c3.3,0,7.2,0.8,10.4,2.2c0.1,2-0.5,5.3-1.3,6.9H277.3z"/>
	<path fill="#FFFFFF" d="M314.1,377.4l-3.1,0.4c-0.5-0.4-0.9-1.1-1.2-2h-5.9v21.6c1.1,0.4,2.2,0.9,2.7,1.5l-0.5,3.9h-11.6l-0.5-3.9
		c0.5-0.6,1.5-1.1,2.7-1.5v-21.6h-5.9c-0.3,0.8-0.7,1.6-1.2,2l-3.1-0.4v-6.7h27.7V377.4z"/>
	<path fill="#FFFFFF" d="M340.3,397.3c1.2,0.4,2.4,1,2.9,1.6l-0.5,3.9h-11.6l-0.5-3.9c0.4-0.6,1.3-1,2.4-1.4l-1.3-3.9h-9.9l-1.2,3.8
		c1.1,0.4,2,1,2.6,1.5l-0.5,3.9h-11.3l-0.5-3.9c0.6-0.7,1.9-1.4,3.3-1.8l9.5-26.7h6.8L340.3,397.3z M323.2,389.4h7.1l-1.9-5.7
		c-1.3-3.9-1.3-6.7-1.3-6.7h-0.7c0,0,0,2.8-1.2,6.6L323.2,389.4z"/>
	<path fill="#FFFFFF" d="M352.6,397.5c1.1,0.4,2.1,1,2.7,1.7l-0.5,3.6h-9.7l-0.5-3.6c0.6-0.7,1.6-1.3,2.7-1.7V376
		c-1.2-0.4-2.3-1-2.8-1.7l0.5-3.6h10.2l9.8,18.1c1.2,2.2,2.5,6.3,2.5,6.3l0.5-0.2c0,0-0.7-4-0.7-6.8V376c-1.1-0.4-2.1-1.1-2.7-1.8
		l0.5-3.6h9.7l0.5,3.6c-0.6,0.7-1.6,1.3-2.7,1.8v26.8h-7.8l-9.9-18.2c-1.2-2.2-2.5-6.3-2.5-6.3l-0.5,0.2c0,0,0.7,4,0.7,6.8V397.5z"
		/>
	<path fill="#FFFFFF" d="M378.5,402.8l-0.5-3.9c0.5-0.6,1.5-1.1,2.7-1.5v-21.3c-1.2-0.4-2.2-1-2.7-1.6l0.5-3.9h11
		c10.3,0,17.3,5.4,17.3,16.5c0,11.4-6.6,15.6-15.7,15.6H378.5z M391.4,397.7c4.2,0,8-1.6,8-10c0-9-3.8-12-9.3-12h-2.2v22H391.4z"/>
	<path fill="#FFFFFF" d="M436.2,397.3c1.2,0.4,2.4,1,2.9,1.6l-0.5,3.9h-11.6l-0.5-3.9c0.4-0.6,1.3-1,2.4-1.4l-1.3-3.9h-9.9l-1.2,3.8
		c1.1,0.4,2,1,2.6,1.5l-0.5,3.9h-11.3l-0.5-3.9c0.6-0.7,1.9-1.4,3.3-1.8l9.5-26.7h6.8L436.2,397.3z M419.1,389.4h7.1l-1.9-5.7
		c-1.3-3.9-1.3-6.7-1.3-6.7h-0.7c0,0,0,2.8-1.2,6.6L419.1,389.4z"/>
	<path fill="#FFFFFF" d="M453.7,370.7c8.5,0.1,13.6,1.9,13.6,9.4c0,4.6-3.7,7.3-7.4,8.6c1.2,0.5,2.6,1.3,3.3,2.4l3.6,6.5
		c1.3,0.4,2.6,1,3.2,1.7l-0.5,3.6h-8.3l-5.7-11.4c-0.3-0.7-0.9-1.7-1.8-1.7h-3.2v7.4c2,0.4,3.9,1.1,4.5,1.8l-0.5,3.9h-13.3l-0.5-3.9
		c0.5-0.6,1.5-1.1,2.7-1.5v-21.3c-1.2-0.4-2.2-1-2.7-1.6l0.5-3.9H453.7z M450.4,375.8v8.8h2.8c4.2,0,6.7-1,6.7-4.3
		c0-3.6-2.7-4.5-6.6-4.5H450.4z"/>
	<path fill="#FFFFFF" d="M472.1,402.8l-0.5-3.9c0.5-0.6,1.5-1.1,2.7-1.5v-21.3c-1.2-0.4-2.2-1-2.7-1.6l0.5-3.9h11
		c10.3,0,17.3,5.4,17.3,16.5c0,11.4-6.6,15.6-15.7,15.6H472.1z M485,397.7c4.2,0,8-1.6,8-10c0-9-3.8-12-9.3-12h-2.2v22H485z"/>
</g>
<g>
	<path fill="#FFFFFF" d="M432,346c0.1-0.4,0.6-0.4,0.8,0l2.1,5.1l5.5,0.5c0.4,0,0.5,0.5,0.2,0.8l-4.2,3.6l1.2,5.4
		c0.1,0.4-0.3,0.7-0.6,0.5l-4.7-2.8l-4.7,2.8c-0.3,0.2-0.7-0.1-0.6-0.5l1.2-5.4l-4.2-3.6c-0.3-0.2-0.1-0.7,0.2-0.8l5.5-0.5L432,346
		L432,346z"/>
</g>
<g>
	<path fill="#FFFFFF" d="M406.8,344c0.2-0.4,0.8-0.4,0.9,0l2.5,6l6.4,0.6c0.4,0,0.6,0.6,0.3,0.9l-4.9,4.2l1.5,6.3
		c0.1,0.4-0.4,0.8-0.8,0.5l-5.5-3.3l-5.5,3.3c-0.4,0.2-0.9-0.1-0.8-0.5l1.5-6.3l-4.9-4.2c-0.3-0.3-0.2-0.9,0.3-0.9l6.4-0.6
		L406.8,344L406.8,344z"/>
</g>
<polygon opacity="0.75" points="257.7,413.7 284.7,415.8 289.5,421.5 261.9,419.6 "/>
<polygon fill="#EAEAEA" points="284.9,415.9 309.3,417.9 315.2,423.7 289.5,421.5 "/>
<g>
	<path fill="#464647" d="M286.7,540.3c5.4,0,8.3,2.5,8.3,9.9c0,7.1-3.3,10.6-8.7,10.6c-5.3,0-8.2-2.8-8.2-10.2
		C278.1,543.4,281.4,540.3,286.7,540.3z M286.5,557.5c2.5,0,4.1-1.7,4.1-7c0-5.3-1.8-7-4.2-7c-2.4,0-4,1.5-4,6.8
		C282.4,555.6,284.2,557.5,286.5,557.5z"/>
	<path fill="#464647" d="M301.5,557.2c0.7,0.3,1.2,0.6,1.6,1.1l-0.3,2.2h-5.7l-0.3-2.2c0.3-0.4,0.9-0.8,1.6-1.1v-13.4
		c-0.7-0.3-1.3-0.6-1.7-1.1l0.3-2.2h6l5.8,11.3c0.7,1.4,1.5,3.9,1.5,3.9l0.3-0.1c0,0-0.4-2.5-0.4-4.2v-7.5c-0.7-0.3-1.2-0.7-1.6-1.1
		l0.3-2.2h5.7l0.3,2.2c-0.3,0.4-0.9,0.8-1.6,1.1v16.7h-4.6l-5.8-11.3c-0.7-1.4-1.5-3.9-1.5-3.9l-0.3,0.1c0,0,0.4,2.5,0.4,4.2V557.2z
		"/>
	<path fill="#464647" d="M330.2,560.5h-13.5l-0.3-2.4c0.3-0.4,0.9-0.7,1.6-1v-13.3c-0.7-0.3-1.3-0.6-1.6-1l0.3-2.4h13.2v5l-2.1,0.3
		c-0.4-0.4-0.8-1.2-1.1-2.1h-4.5v5h4c0.2-0.5,0.4-1,0.7-1.2l1.8,0.2v5.2l-1.8,0.2c-0.3-0.2-0.5-0.7-0.7-1.2h-4v5.5h4.8
		c0.2-0.9,0.6-1.7,1.1-2.1l2.1,0.3V560.5z"/>
	<path fill="#464647" d="M349.6,552.2c1,2.3,1.1,4,1.1,4h0.4c0,0,0.1-1.8,1-4l4-11.7h6.5l0.3,2.2c-0.3,0.4-1,0.8-1.7,1.1v13.3
		c0.7,0.3,1.2,0.6,1.6,1l-0.3,2.4h-6.6l-0.3-2.4c0.3-0.4,0.9-0.8,1.6-1v-7.5c0-1.7,0.3-4.3,0.3-4.3l-0.3,0c0,0-0.7,2.5-1.2,3.9
		l-3.9,11.3h-3.9l-4.1-11.3c-0.6-1.4-1.2-3.9-1.2-3.9l-0.3,0c0,0,0.3,2.6,0.3,4.3v7.6c0.7,0.3,1.2,0.6,1.6,1.1l-0.3,2.2h-5.7
		l-0.3-2.2c0.3-0.4,0.9-0.8,1.6-1.1v-13.4c-0.7-0.3-1.3-0.6-1.7-1.1l0.3-2.2h6.6L349.6,552.2z"/>
	<path fill="#464647" d="M378.6,560.5h-13.5l-0.3-2.4c0.3-0.4,0.9-0.7,1.6-1v-13.3c-0.7-0.3-1.3-0.6-1.6-1l0.3-2.4h13.2v5l-2.1,0.3
		c-0.4-0.4-0.8-1.2-1.1-2.1h-4.5v5h4c0.2-0.5,0.4-1,0.7-1.2l1.8,0.2v5.2l-1.8,0.2c-0.3-0.2-0.5-0.7-0.7-1.2h-4v5.5h4.8
		c0.2-0.9,0.6-1.7,1.1-2.1l2.1,0.3V560.5z"/>
	<path fill="#464647" d="M384.8,550.3c0,5,1.5,7.2,3.9,7.2c1,0,2-0.2,2.8-0.5v-3.3c-0.8-0.3-1.5-0.6-1.8-1.1l0.3-2.3h6.8l0.3,2.3
		c-0.3,0.3-0.8,0.6-1.4,0.9v5.4c-1.9,1.4-4,1.9-7.2,1.9c-5.4,0-8-2.8-8-10.2c0-7.1,3.4-10.3,8.7-10.3c2.7,0,4.7,0.6,6.5,1.8
		c0.1,1.2-0.3,3.3-0.8,4.3h-2.7c-0.3-0.5-0.5-1.5-0.6-2.4c-0.8-0.3-1.6-0.4-2.7-0.4C386.6,543.5,384.8,545,384.8,550.3z"/>
	<path fill="#464647" d="M414.3,557.1c0.7,0.3,1.4,0.6,1.7,1l-0.3,2.4h-6.8l-0.3-2.4c0.3-0.3,0.8-0.6,1.4-0.9l-0.8-2.4h-5.8
		l-0.7,2.3c0.6,0.3,1.2,0.6,1.5,1l-0.3,2.4h-6.6l-0.3-2.4c0.3-0.4,1.1-0.8,1.9-1.1l5.6-16.7h4L414.3,557.1z M404.3,552.1h4.1
		l-1.1-3.5c-0.8-2.4-0.8-4.2-0.8-4.2h-0.4c0,0,0,1.8-0.7,4.1L404.3,552.1z"/>
	<path fill="#464647" d="M423.7,540.5c5.4,0,8.7,0.6,8.7,5.3c0,1.5-0.9,2.7-2.1,3.7c1.5,0.8,2.7,2.3,2.7,5.1c0,3.9-2.7,5.7-7.6,5.9
		h-8.3l-0.3-2.4c0.3-0.4,0.9-0.7,1.6-1v-13.3c-0.7-0.3-1.3-0.6-1.6-1l0.3-2.4H423.7z M422.6,543.6v5h2.4c2.1,0,3-1.2,3-2.6
		c0-2.2-1.6-2.4-3.9-2.4H422.6z M422.6,551.8v5.5h2c2.3,0,4-0.4,4-2.8c0-1.8-1-2.7-3.4-2.7H422.6z"/>
	<path fill="#464647" d="M438.6,560.5l-0.3-2.4c0.3-0.4,0.9-0.7,1.6-1v-3.3l-4.7-9.8c-0.8-0.3-1.5-0.6-1.9-1.1l0.3-2.3v0l0-0.1h6.8
		l0.3,2.4c-0.3,0.3-0.8,0.6-1.3,0.9l1,2.2c1,2.3,1.7,4.4,1.7,4.4h0.4c0,0,0.6-2.1,1.6-4.4l0.9-2.1c-0.7-0.3-1.3-0.6-1.6-1l0.3-2.4
		h6.6l0.3,2.4c-0.4,0.4-1.1,0.8-1.9,1.1l-4.6,9.8v3.3c0.7,0.3,1.3,0.6,1.6,1l-0.3,2.4H438.6z"/>
	<path fill="#464647" d="M466.9,544.7l-1.8,0.2c-0.3-0.2-0.5-0.7-0.7-1.2h-3.5v13.5c0.7,0.3,1.3,0.6,1.6,1l-0.3,2.4h-6.8l-0.3-2.4
		c0.3-0.4,0.9-0.7,1.6-1v-13.5h-3.5c-0.2,0.5-0.4,1-0.7,1.2l-1.8-0.2v-4.1h16.2V544.7z"/>
	<path fill="#464647" d="M481.8,560.5h-13.5l-0.3-2.4c0.3-0.4,0.9-0.7,1.6-1v-13.3c-0.7-0.3-1.3-0.6-1.6-1l0.3-2.4h13.2v5l-2.1,0.3
		c-0.4-0.4-0.8-1.2-1.1-2.1h-4.5v5h4c0.2-0.5,0.4-1,0.7-1.2l1.8,0.2v5.2l-1.8,0.2c-0.3-0.2-0.5-0.7-0.7-1.2h-4v5.5h4.8
		c0.2-0.9,0.6-1.7,1.1-2.1l2.1,0.3V560.5z"/>
	<path fill="#BC2233" d="M213.1,589.1c0,10.1,3,14.3,7.9,14.3c2.1,0,4-0.3,5.6-1v-6.6c-1.6-0.5-3-1.3-3.7-2.1l0.6-4.6H237l0.6,4.6
		c-0.6,0.7-1.6,1.3-2.7,1.8v10.7c-3.8,2.8-7.9,3.7-14.4,3.7c-10.8,0-16.1-5.5-16.1-20.4c0-14.3,6.8-20.6,17.5-20.6
		c5.3,0,9.5,1.2,12.9,3.7c0.2,2.4-0.6,6.6-1.6,8.6h-5.3c-0.5-1-1-3-1.2-4.8c-1.7-0.6-3.2-0.9-5.3-0.9
		C216.6,575.6,213.1,578.5,213.1,589.1z"/>
	<path fill="#BC2233" d="M242.7,595v-18.7c-1.4-0.5-2.6-1.2-3.2-2l0.6-4.8h13.6l0.6,4.8c-0.6,0.8-1.9,1.5-3.2,2v19
		c0,5.3,1.3,8.2,6.3,8.2c4.8,0,6.4-3.1,6.4-8.2v-19c-1.4-0.5-2.6-1.2-3.2-2l0.6-4.8h12.7l0.6,4.8c-0.6,0.8-1.9,1.5-3.2,2V595
		c0,10-4.2,15-14.6,15C246,610,242.7,604.8,242.7,595z"/>
	<path fill="#BC2233" d="M307.8,602.7c1.5,0.5,2.8,1.3,3.4,2l-0.6,4.8h-13.6l-0.6-4.8c0.5-0.7,1.6-1.3,2.8-1.7l-1.6-4.9h-11.6
		l-1.5,4.7c1.3,0.5,2.4,1.2,3,1.9l-0.6,4.8h-13.2l-0.6-4.8c0.7-0.9,2.2-1.7,3.9-2.2l11.1-33.3h7.9L307.8,602.7z M287.8,592.7h8.3
		l-2.2-7.1c-1.5-4.8-1.6-8.4-1.6-8.4h-0.8c0,0,0,3.5-1.5,8.2L287.8,592.7z"/>
	<path fill="#BC2233" d="M328.3,569.5c10,0.2,16,2.4,16,11.7c0,5.7-4.4,9-8.6,10.7c1.4,0.6,3.1,1.6,3.8,3l4.2,8.1
		c1.6,0.5,3,1.3,3.7,2.1l-0.6,4.5h-9.8l-6.7-14.2c-0.3-0.8-1.1-2.1-2.1-2.1h-3.8v9.3c2.3,0.5,4.5,1.3,5.3,2.3l-0.6,4.8h-15.7
		l-0.6-4.8c0.6-0.8,1.8-1.4,3.2-1.9v-26.5c-1.4-0.5-2.6-1.2-3.2-2l0.6-4.8H328.3z M324.5,575.8v11h3.3c4.9,0,7.8-1.2,7.8-5.4
		c0-4.5-3.1-5.6-7.7-5.6H324.5z"/>
	<path fill="#BC2233" d="M381.7,602.7c1.5,0.5,2.8,1.3,3.4,2l-0.6,4.8H371l-0.6-4.8c0.5-0.7,1.6-1.3,2.8-1.7l-1.6-4.9H360l-1.5,4.7
		c1.3,0.5,2.4,1.2,3,1.9l-0.6,4.8h-13.2l-0.6-4.8c0.7-0.9,2.2-1.7,3.9-2.2l11.1-33.3h7.9L381.7,602.7z M361.6,592.7h8.3l-2.2-7.1
		c-1.5-4.8-1.6-8.4-1.6-8.4h-0.8c0,0,0,3.5-1.5,8.2L361.6,592.7z"/>
	<path fill="#BC2233" d="M396.1,602.9c1.3,0.5,2.5,1.3,3.2,2.1l-0.6,4.5h-11.4l-0.6-4.5c0.7-0.9,1.9-1.6,3.2-2.1v-26.8
		c-1.4-0.5-2.7-1.3-3.3-2.1l0.6-4.5h11.9l11.5,22.5c1.4,2.7,2.9,7.9,2.9,7.9l0.6-0.2c0,0-0.8-5-0.8-8.5v-15
		c-1.3-0.5-2.5-1.3-3.2-2.2l0.6-4.5h11.4l0.6,4.5c-0.7,0.9-1.9,1.7-3.2,2.2v33.3h-9.1l-11.7-22.7c-1.4-2.7-2.9-7.9-2.9-7.9l-0.6,0.2
		c0,0,0.8,5,0.8,8.5V602.9z"/>
	<path fill="#BC2233" d="M457.1,577.8l-3.7,0.5c-0.6-0.5-1-1.4-1.5-2.4h-7v26.9c1.3,0.5,2.6,1.2,3.2,1.9l-0.6,4.8h-13.6l-0.6-4.8
		c0.6-0.8,1.8-1.4,3.2-1.9v-26.9h-7c-0.4,1-0.9,2-1.4,2.4l-3.7-0.5v-8.3h32.5V577.8z"/>
	<path fill="#BC2233" d="M486.9,609.5H460l-0.6-4.8c0.6-0.8,1.8-1.4,3.2-1.9v-26.5c-1.4-0.5-2.6-1.2-3.2-2l0.6-4.8h26.4v10.1
		l-4.3,0.5c-0.9-0.8-1.7-2.5-2.1-4.3h-9v10h8.1c0.4-1,0.9-1.9,1.5-2.4l3.7,0.4v10.3l-3.7,0.5c-0.6-0.5-1-1.4-1.5-2.4h-8.1v11.1h9.5
		c0.5-1.8,1.3-3.5,2.1-4.3l4.3,0.5V609.5z"/>
	<path fill="#BC2233" d="M518.2,609.5h-26.9l-0.6-4.8c0.6-0.8,1.8-1.4,3.2-1.9v-26.5c-1.4-0.5-2.6-1.2-3.2-2l0.6-4.8h26.4v10.1
		l-4.3,0.5c-0.9-0.8-1.7-2.5-2.1-4.3h-9v10h8.1c0.4-1,0.9-1.9,1.5-2.4l3.7,0.4v10.3l-3.7,0.5c-0.6-0.5-1-1.4-1.5-2.4h-8.1v11.1h9.5
		c0.5-1.8,1.3-3.5,2.1-4.3l4.3,0.5V609.5z"/>
	<path fill="#BC2233" d="M522.5,609.5l-0.6-4.8c0.6-0.8,1.8-1.4,3.2-1.9v-26.5c-1.4-0.5-2.6-1.2-3.2-2l0.6-4.8h12.9
		c12.1,0,20.3,6.7,20.3,20.6c0,14.2-7.8,19.4-18.4,19.4H522.5z M537.6,603.2c4.9,0,9.4-2,9.4-12.5c0-11.2-4.4-14.9-11-14.9h-2.6
		v27.4H537.6z"/>
</g>
<polygon opacity="0.75" points="502.1,413.9 475.5,416.1 470.6,421.8 498.2,419.6 "/>
<polygon fill="#EAEAEA" points="475.5,416.1 452.6,417.9 447.2,423.5 470.6,421.8 "/>
<polygon opacity="0.25" points="452.6,417.9 413.5,420.9 413.5,426.5 447.2,423.5 "/>
<polygon fill="#EAEAEA" points="413.5,421 381.1,423.5 381.1,429.2 413.5,426.5 "/>
<polygon opacity="0.25" points="309.4,417.9 348.8,420.9 348.8,426.5 315.2,423.7 "/>
<polygon opacity="0.25" fill="#8E8E8E" points="348.7,421 381.1,423.5 381.1,429.2 348.7,426.5 "/>
</svg>
